<?xml version="1.0" encoding="iso-8859-1"?>
<!-- Generator: Adobe Illustrator 16.0.0, SVG Export Plug-In . SVG Version: 6.00 Build 0)  -->
<!DOCTYPE svg PUBLIC "-//W3C//DTD SVG 1.1//EN" "http://www.w3.org/Graphics/SVG/1.1/DTD/svg11.dtd">
<svg version="1.1" id="Capa_1" xmlns="http://www.w3.org/2000/svg" xmlns:xlink="http://www.w3.org/1999/xlink" x="0px" y="0px"
	 width="32.471px" height="32.471px" viewBox="0 0 32.471 32.471" style="enable-background:new 0 0 32.471 32.471;"
	 xml:space="preserve">
<g>
	<path d="M31.777,13.857c-0.427-0.538-1.279-1.949-1.279-1.949s1.051-1.067,1.299-1.317c0.247-0.252-0.655-0.617-1.357-0.473
		c-0.703,0.145-1.183,0.492-1.183,0.492s-0.748-0.695-1.79-0.833c-1.044-0.138-2.304-0.033-2.304-0.033l-0.156,1.899
		c0,0-0.661,0.029-0.719,0.295c-0.061,0.265,0.127,0.925,0.227,1.447c-0.325,0.059-2.963-0.63-3.149-1.183
		c-0.188-0.551,0.178-1.968,0.808-3.325c0.629-1.358-0.018-3.071-0.295-4.075c-0.354-1.279-1.271-2.451-2.206-2.42
		c-0.935,0.029-1.229,0.413-1.477,0.964c-0.244,0.551-0.413,2.125-0.413,2.125L17.72,6.223c0,0-1.314-1.459-1.373-1.774
		c-0.06-0.314-0.138-0.8-0.198-1.142c-0.059-0.342-0.461-0.915-0.511-1.201c-0.049-0.285-0.164-1.213-0.748-1.574
		c-0.583-0.36-2.408-0.663-2.4-0.473c0.006,0.191,0.521,0.167,0.603,0.291c-0.338,0.094-0.479,0.153-0.426,0.389
		c0.052,0.236,0.492,0.127,0.453,0.267c-0.256,0.049-0.494,0.312-0.168,0.226c0.482-0.127,1.269-0.068,1.683,0.069
		c0.02,0.187,0.146,1.711,0.256,2.244c0.108,0.53,0.63,1.968,0.63,1.968s-2.018-2.117-2.047-1.95
		c-0.029,0.168,0.093,0.623,0.093,0.623s-0.869-0.277-0.781-0.09c0.089,0.187,0.914,0.492,1.063,0.728
		c0.147,0.236,0.088,0.325,0.452,0.708c0.062,0.065,0.126,0.117,0.188,0.171c-0.525,0.113-1.252,0.277-1.252,0.277
		s0.001-0.326,0.043-0.548c0.091-0.492-0.338-0.724-0.38-0.569c-0.043,0.154-0.176,1.309-0.338,1.413
		c-0.161,0.105-1.167,0.316-1.813,0.59c-0.548-0.675-1.771-1.138-1.771-1.138l0.416-0.981c0,0,0.406,0.181,0.364-0.01
		C9.715,4.546,9.821,3.808,9.821,3.808l0.338-0.865c0,0,0.442-0.379,0.379-0.61C10.475,2.1,9.863,0.708,8.599,0.69
		c-1.267-0.017-1.856,0.818-1.954,1.49S6.448,3.723,6.448,3.723S6.077,4.209,5.901,4.439C5.724,4.671,5.182,4.672,4.192,4.588
		C3.202,4.504,1.409,6.76,1.394,7.496C1.377,8.234,3.031,8.662,3.031,8.662s3.164,3.117,3.417,3.369
		c0.255,0.25,0.316,0.695,0.212,1.097c-0.105,0.4-1.113,1.761-1.322,2.227c-0.322,0.726-0.085,1.578-0.007,1.991
		c0.079,0.413-0.358,3.563-0.527,3.942c-0.168,0.38-0.934,1.401-1.645,2.468c-0.71,1.065-1.286,3.584-1.286,3.584
		s-0.465-0.215-0.906-0.189c-0.717,0.042-0.612,0.864-0.612,0.864v1.226c0,0-0.104,0.736-0.231,1.621s0.886,1.52,1.455,1.604
		c0.569,0.084,0.526-0.696,0.526-0.696l-0.126-0.907c0,0,0.885-1.854,0.885-2.34s0.127-0.738,0.174-0.866
		c0.047-0.128,1.795-2.508,1.795-2.508s-0.176,0.465,0.219,0.355c0.396-0.108,2.267-3.864,2.267-3.864s-0.659,2.966-0.752,3.383
		c-0.093,0.417,0.384,0.436,0.384,0.436s0.3,2.622,0.269,3.784c-0.032,1.162-0.433,2.001-0.495,2.148
		c-0.062,0.146,0.021,0.865,0.021,0.865H8.35l0.21-0.169l0.232,0.169c0,0,1.834,0,2.299,0c0.464,0,0.928-0.422,0.422-0.612
		c-0.506-0.19-1.125-0.374-1.125-0.374s-0.963-0.385-1.236-0.723c-0.274-0.337-0.465-0.78-0.441-1.629
		c0.024-0.85,0.297-2.896,0.297-2.896s0.207-0.028,0.279-0.306c0.071-0.278,0.581-1.558,0.724-2.379
		c0.141-0.823,0.532-2.868,0.659-5.23c0.127-2.361,0.026-6.683,0.021-6.979c-0.006-0.298,1.328-0.232,1.371-0.455
		c0.043-0.224-0.17-1.738-0.17-1.738s1.013-0.348,1.414-0.485c0.399-0.138,0.273-0.69,0.273-0.69s0.254-0.22,0.604-0.435
		c0.349-0.216,0.894-0.61,1.037-0.718c0.142-0.106,0.137-0.203,0.137-0.203s0.047-0.014,0.096-0.068
		c0.282,0.21,0.669,0.661,0.91,1.087c0.268,0.471-0.911,1.175-1.331,1.771c-0.438,0.623,0.109,1.506,1.437,1.654
		c-0.294,1.022,0.67,3.237,0.67,3.237s-0.364,0.423-0.335,0.698c0.03,0.275,0.458,5.685,0.696,7.774
		c0.237,2.091,1.075,9.08,1.839,8.936s2.123-0.63,2.412-0.577c0.288,0.053-0.668,1.05-0.577,1.339c0.094,0.289,0.264,0.288,1.24,0
		c0.311-0.092,0.312-0.458,0.626-0.919c0.315-0.462,1.139-0.787,1.204-1.13c0.065-0.341-0.137-0.603-0.137-0.603h0.002
		c0,0-0.023-0.275,0.15-0.356c0.176-0.081,2.03-0.745,2.105-0.961c0.074-0.215-0.969-0.823-0.969-0.823s0.645-0.128,0.657-0.438
		c0.015-0.309,1.056-1.244,1.534-1.566c0.479-0.324,1.089-0.722,0.876-0.893c-0.214-0.169-0.127-0.664,0.24-0.932
		c0.164-0.121,0.667-0.869,0.971-1.785c0.369-1.12,0.541-2.475,0.656-3.031c0.209-1.01,1.889-2.323,2.001-3.052
		C32.439,15.037,32.203,14.396,31.777,13.857z M29.828,19.158c0,0-1.496,2.467-1.837,2.887c-0.342,0.421-0.301-0.685-0.787-0.105
		c-0.486,0.58-2.205,2.677-2.835,3.02c-0.629,0.341,0.729,0.584,0.21,0.865c-0.517,0.282-2.062,1.138-2.422,1.238
		c-0.36,0.101,0.634,0.33,0.086,0.625c-0.547,0.295-1.294,0.621-2.047,0.814c-0.752,0.191-1.521,0.262-1.521,0.262l-0.473-2.361
		c0,0,1.617-0.239,2.229-0.422c1.052-0.312,0.099-0.807,0.551-1.042c0.453-0.234,2.057-0.94,2.475-1.283
		c0.781-0.639-1.021-0.095-0.54-0.677c0.482-0.583,2.109-2.324,2.766-2.783c0.654-0.459,0.262,0.8,0.84,0.329
		c0.578-0.474,1.592-1.848,1.837-2.495c0.11-0.291,0.289,0.425,0.419,0.08c0.16-0.418,0.314-1.122,0.263-1.873
		s-0.315-1.456-0.804-2.011c-0.323-0.368,0.043,0.63-0.271,0.34c-0.69-0.634-2.99-0.944-2.99-0.944l-0.382-1.652
		c0,0,1.771-0.377,3.109,0.053c1.064,0.342,0.263-0.635,0.787-0.424c0.525,0.21,1.155,0.87,1.654,1.552
		c0.499,0.683,0.761,1.707,0.839,2.467C31.062,16.377,29.828,19.158,29.828,19.158z"/>
</g>
<g>
</g>
<g>
</g>
<g>
</g>
<g>
</g>
<g>
</g>
<g>
</g>
<g>
</g>
<g>
</g>
<g>
</g>
<g>
</g>
<g>
</g>
<g>
</g>
<g>
</g>
<g>
</g>
<g>
</g>
</svg>
