<svg width="33" height="33" viewBox="0 0 33 33" fill="none" xmlns="http://www.w3.org/2000/svg">
<g id="couple-dancing-flamenco 1" clip-path="url(#clip0)">
<g id="Group">
<path id="Vector" d="M31.777 13.857C31.35 13.319 30.498 11.908 30.498 11.908C30.498 11.908 31.549 10.841 31.797 10.591C32.044 10.339 31.142 9.974 30.44 10.118C29.737 10.263 29.257 10.61 29.257 10.61C29.257 10.61 28.509 9.915 27.467 9.777C26.423 9.639 25.163 9.744 25.163 9.744L25.007 11.643C25.007 11.643 24.346 11.672 24.288 11.938C24.227 12.203 24.415 12.863 24.515 13.385C24.19 13.444 21.552 12.755 21.366 12.202C21.178 11.651 21.544 10.234 22.174 8.877C22.803 7.519 22.156 5.806 21.879 4.802C21.525 3.523 20.608 2.351 19.673 2.382C18.738 2.411 18.444 2.795 18.196 3.346C17.952 3.897 17.783 5.471 17.783 5.471L17.72 6.223C17.72 6.223 16.406 4.764 16.347 4.449C16.287 4.135 16.209 3.649 16.149 3.307C16.09 2.965 15.688 2.392 15.638 2.106C15.589 1.821 15.474 0.893 14.89 0.532C14.307 0.172 12.482 -0.131 12.49 0.0589995C12.496 0.25 13.011 0.226 13.093 0.35C12.755 0.444 12.614 0.503 12.667 0.739C12.719 0.975 13.159 0.866 13.12 1.006C12.864 1.055 12.626 1.318 12.952 1.232C13.434 1.105 14.221 1.164 14.635 1.301C14.655 1.488 14.781 3.012 14.891 3.545C14.999 4.075 15.521 5.513 15.521 5.513C15.521 5.513 13.503 3.396 13.474 3.563C13.445 3.731 13.567 4.186 13.567 4.186C13.567 4.186 12.698 3.909 12.786 4.096C12.875 4.283 13.7 4.588 13.849 4.824C13.996 5.06 13.937 5.149 14.301 5.532C14.363 5.597 14.427 5.649 14.489 5.703C13.964 5.816 13.237 5.98 13.237 5.98C13.237 5.98 13.238 5.654 13.28 5.432C13.371 4.94 12.942 4.708 12.9 4.863C12.857 5.017 12.724 6.172 12.562 6.276C12.401 6.381 11.395 6.592 10.749 6.866C10.201 6.191 8.978 5.728 8.978 5.728L9.394 4.747C9.394 4.747 9.8 4.928 9.758 4.737C9.715 4.546 9.821 3.808 9.821 3.808L10.159 2.943C10.159 2.943 10.601 2.564 10.538 2.333C10.475 2.1 9.863 0.708 8.599 0.69C7.332 0.673 6.743 1.508 6.645 2.18C6.547 2.852 6.448 3.723 6.448 3.723C6.448 3.723 6.077 4.209 5.901 4.439C5.724 4.671 5.182 4.672 4.192 4.588C3.202 4.504 1.409 6.76 1.394 7.496C1.377 8.234 3.031 8.662 3.031 8.662C3.031 8.662 6.195 11.779 6.448 12.031C6.703 12.281 6.764 12.726 6.66 13.128C6.555 13.528 5.547 14.889 5.338 15.355C5.016 16.081 5.253 16.933 5.331 17.346C5.41 17.759 4.973 20.909 4.804 21.288C4.636 21.668 3.87 22.689 3.159 23.756C2.449 24.821 1.873 27.34 1.873 27.34C1.873 27.34 1.408 27.125 0.967 27.151C0.25 27.193 0.355 28.015 0.355 28.015V29.241C0.355 29.241 0.251 29.977 0.124 30.862C-0.00300003 31.747 1.01 32.382 1.579 32.466C2.148 32.55 2.105 31.77 2.105 31.77L1.979 30.863C1.979 30.863 2.864 29.009 2.864 28.523C2.864 28.037 2.991 27.785 3.038 27.657C3.085 27.529 4.833 25.149 4.833 25.149C4.833 25.149 4.657 25.614 5.052 25.504C5.448 25.396 7.319 21.64 7.319 21.64C7.319 21.64 6.66 24.606 6.567 25.023C6.474 25.44 6.951 25.459 6.951 25.459C6.951 25.459 7.251 28.081 7.22 29.243C7.188 30.405 6.787 31.244 6.725 31.391C6.663 31.537 6.746 32.256 6.746 32.256H8.35L8.56 32.087L8.792 32.256C8.792 32.256 10.626 32.256 11.091 32.256C11.555 32.256 12.019 31.834 11.513 31.644C11.007 31.454 10.388 31.27 10.388 31.27C10.388 31.27 9.425 30.885 9.152 30.547C8.878 30.21 8.687 29.767 8.711 28.918C8.735 28.068 9.008 26.022 9.008 26.022C9.008 26.022 9.215 25.994 9.287 25.716C9.358 25.438 9.868 24.158 10.011 23.337C10.152 22.514 10.543 20.469 10.67 18.107C10.797 15.746 10.696 11.424 10.691 11.128C10.685 10.83 12.019 10.896 12.062 10.673C12.105 10.449 11.892 8.935 11.892 8.935C11.892 8.935 12.905 8.587 13.306 8.45C13.705 8.312 13.579 7.76 13.579 7.76C13.579 7.76 13.833 7.54 14.183 7.325C14.532 7.109 15.077 6.715 15.22 6.607C15.362 6.501 15.357 6.404 15.357 6.404C15.357 6.404 15.404 6.39 15.453 6.336C15.735 6.546 16.122 6.997 16.363 7.423C16.631 7.894 15.452 8.598 15.032 9.194C14.594 9.817 15.141 10.7 16.469 10.848C16.175 11.87 17.139 14.085 17.139 14.085C17.139 14.085 16.775 14.508 16.804 14.783C16.834 15.058 17.262 20.468 17.5 22.557C17.737 24.648 18.575 31.637 19.339 31.493C20.103 31.349 21.462 30.863 21.751 30.916C22.039 30.969 21.083 31.966 21.174 32.255C21.268 32.544 21.438 32.543 22.414 32.255C22.725 32.163 22.726 31.797 23.04 31.336C23.355 30.874 24.179 30.549 24.244 30.206C24.309 29.865 24.107 29.603 24.107 29.603H24.109C24.109 29.603 24.086 29.328 24.259 29.247C24.435 29.166 26.289 28.502 26.364 28.286C26.438 28.071 25.395 27.463 25.395 27.463C25.395 27.463 26.04 27.335 26.052 27.025C26.067 26.716 27.108 25.781 27.586 25.459C28.065 25.135 28.675 24.737 28.462 24.566C28.248 24.397 28.335 23.902 28.702 23.634C28.866 23.513 29.369 22.765 29.673 21.849C30.042 20.729 30.214 19.374 30.329 18.818C30.538 17.808 32.218 16.495 32.33 15.766C32.439 15.037 32.203 14.396 31.777 13.857ZM29.828 19.158C29.828 19.158 28.332 21.625 27.991 22.045C27.649 22.466 27.69 21.36 27.204 21.94C26.718 22.52 24.999 24.617 24.369 24.96C23.74 25.301 25.098 25.544 24.579 25.825C24.062 26.107 22.517 26.963 22.157 27.063C21.797 27.164 22.791 27.393 22.243 27.688C21.696 27.983 20.949 28.309 20.196 28.502C19.444 28.693 18.675 28.764 18.675 28.764L18.202 26.403C18.202 26.403 19.819 26.164 20.431 25.981C21.483 25.669 20.53 25.174 20.982 24.939C21.435 24.705 23.039 23.999 23.457 23.656C24.238 23.017 22.436 23.561 22.917 22.979C23.399 22.396 25.026 20.655 25.683 20.196C26.337 19.737 25.945 20.996 26.523 20.525C27.101 20.051 28.115 18.677 28.36 18.03C28.47 17.739 28.649 18.455 28.779 18.11C28.939 17.692 29.093 16.988 29.042 16.237C28.991 15.486 28.727 14.781 28.238 14.226C27.915 13.858 28.281 14.856 27.967 14.566C27.277 13.932 24.977 13.622 24.977 13.622L24.595 11.97C24.595 11.97 26.366 11.593 27.704 12.023C28.768 12.365 27.967 11.388 28.491 11.599C29.016 11.809 29.646 12.469 30.145 13.151C30.644 13.834 30.906 14.858 30.984 15.618C31.062 16.377 29.828 19.158 29.828 19.158Z" fill="white"/>
</g>
</g>
<defs>
<clipPath id="clip0">
<rect width="32.471" height="32.471" fill="white"/>
</clipPath>
</defs>
</svg>
